<?xml version="1.0" encoding="UTF-8"?>
<svg width="512" height="512" viewBox="0 0 512 512" fill="none" xmlns="http://www.w3.org/2000/svg">
    <rect width="512" height="512" rx="128" fill="#4f46e5"/>
    <path d="M256 128C282.5 128 304 149.5 304 176V336C304 362.5 282.5 384 256 384H176C149.5 384 128 362.5 128 336V176C128 149.5 149.5 128 176 128H256ZM256 160H176C167.2 160 160 167.2 160 176V336C160 344.8 167.2 352 176 352H256C264.8 352 272 344.8 272 336V176C272 167.2 264.8 160 256 160Z" fill="white"/>
    <path d="M384 176C384 167.2 376.8 160 368 160C359.2 160 352 167.2 352 176V336C352 344.8 359.2 352 368 352C376.8 352 384 344.8 384 336V176Z" fill="white"/>
</svg>
